Coordinates
version=1
nRows=14
nColumns=40
inDegrees=yes

Units are S.I. units (second, meters, Newtons, ...)
If the header above contains a line with 'inDegrees', this indicates whether rotational values are in degrees (yes) or radians (no).

endheader
time	pelvis_tilt	pelvis_list	pelvis_rotation	pelvis_tx	pelvis_ty	pelvis_tz	hip_flexion_r	hip_adduction_r	hip_rotation_r	knee_angle_r	knee_angle_r_beta	ankle_angle_r	subtalar_angle_r	mtp_angle_r	hip_flexion_l	hip_adduction_l	hip_rotation_l	knee_angle_l	knee_angle_l_beta	ankle_angle_l	subtalar_angle_l	mtp_angle_l	lumbar_extension	lumbar_bending	lumbar_rotation	arm_flex_r	arm_add_r	arm_rot_r	elbow_flex_r	pro_sup_r	wrist_flex_r	wrist_dev_r	arm_flex_l	arm_add_l	arm_rot_l	elbow_flex_l	pro_sup_l	wrist_flex_l	wrist_dev_l
      3.18500000	     -9.03190926	     -0.25916173	     -1.40644566	     -0.23158003	      1.31273089	     -0.93823681	     15.09752458	     -9.34080743	    -13.66737844	     18.01293560	      0.31438503	    -38.46018512	      0.00000000	      0.00000000	     15.96457543	    -11.00849743	     -6.41540633	     18.61748374	      0.32493639	    -34.82279013	      0.00000000	      0.00000000	    -10.11194230	     -2.16305098	     -7.10543941	    -14.25834450	    -41.56081500	     39.84246792	     87.63471724	     87.13515894	      0.00000000	      0.00000000	    -31.93403376	    -41.88100701	     25.82175726	     90.04032623	     87.22807772	      0.00000000	      0.00000000
      3.19000000	     -9.17376750	     -0.35133072	     -1.51095392	     -0.23189872	      1.32081993	     -0.93860780	     15.17738094	     -9.16614077	    -12.67263952	     17.60329863	      0.30723552	    -38.47794093	      0.00000000	      0.00000000	     15.99519217	    -11.20368441	     -5.70378124	     18.39788213	      0.32110362	    -33.81465977	      0.00000000	      0.00000000	     -9.94650086	     -2.04838325	     -7.17547179	    -14.39151904	    -41.62239893	     39.68245201	     87.75614353	     87.11929150	      0.00000000	      0.00000000	    -31.79876154	    -41.64421933	     25.84618265	     89.76130430	     87.21614092	      0.00000000	      0.00000000
      3.19500000	     -9.18595828	     -0.66076812	     -1.56073303	     -0.23197203	      1.32896500	     -0.93891720	     14.93097976	     -8.72431565	    -11.71247389	     16.96144156	      0.29603300	    -38.35755779	      0.00000000	      0.00000000	     15.90061086	    -11.63358423	     -4.90578667	     18.18292985	      0.31735199	    -32.99380835	      0.00000000	      0.00000000	     -9.92492359	     -1.67549631	     -6.86992180	    -15.37551703	    -41.43498613	     38.44575099	     87.93568940	     87.10552875	      0.00000000	      0.00000000	    -31.22077235	    -41.56851717	     26.22043728	     89.50218075	     87.22540356	      0.00000000	      0.00000000
      3.20000000	     -9.30672596	     -0.73080471	     -1.64560146	     -0.23206612	      1.33657512	     -0.93927274	     14.93244085	     -8.59185774	    -10.84167860	     16.46903328	      0.28743886	    -38.07772052	      0.00000000	      0.00000000	     15.78535679	    -11.77763781	     -4.22662399	     17.68487837	      0.30865936	    -31.78831540	      0.00000000	      0.00000000	     -9.79301757	     -1.59921285	     -6.91414271	    -15.78580930	    -41.38836772	     37.95009201	     88.11048892	     87.11045177	      0.00000000	      0.00000000	    -31.24156535	    -41.28070409	     25.97456063	     89.26933121	     87.19393071	      0.00000000	      0.00000000
      3.20500000	     -9.44034295	     -0.88121021	     -1.75130584	     -0.23201628	      1.34395564	     -0.93959969	     14.77793886	     -8.34135942	     -9.97335193	     15.57204916	      0.27178353	    -37.83497870	      0.00000000	      0.00000000	     15.61437674	    -12.00642273	     -3.67113336	     17.05242322	      0.29762093	    -30.49028364	      0.00000000	      0.00000000	     -9.61183649	     -1.41486706	     -6.91278585	    -16.33152016	    -41.31308316	     37.25653525	     88.29315799	     87.11320002	      0.00000000	      0.00000000	    -31.33370574	    -40.98428748	     25.62696135	     89.13722045	     87.18191940	      0.00000000	      0.00000000
      3.21000000	     -9.55807355	     -1.03439292	     -1.86091819	     -0.23188964	      1.35107949	     -0.93985753	     14.46993915	     -8.07966655	     -8.96433671	     14.33386133	      0.25017307	    -37.63299039	      0.00000000	      0.00000000	     15.42733717	    -12.27645792	     -3.50755296	     16.39486146	      0.28614431	    -29.33964255	      0.00000000	      0.00000000	     -9.45924114	     -1.19810757	     -6.24729058	    -18.37472243	    -40.75624724	     34.58614939	     88.75058056	     87.19192443	      0.00000000	      0.00000000	    -30.49985128	    -41.21987117	     26.39021248	     88.99631125	     87.21835466	      0.00000000	      0.00000000
      3.21500000	     -9.64681756	     -1.16154982	     -1.98932879	     -0.23167896	      1.35790853	     -0.94019960	     14.23886869	     -7.89784473	     -8.29434748	     13.36550088	      0.23327200	    -37.03740164	      0.00000000	      0.00000000	     15.12659747	    -12.50752732	     -3.40551480	     15.63956243	      0.27296186	    -27.85342477	      0.00000000	      0.00000000	     -9.28227218	     -1.03710473	     -6.25119187	    -18.81245856	    -40.77382867	     34.14702816	     88.97141532	     87.17656109	      0.00000000	      0.00000000	    -30.71653373	    -40.90964521	     25.91286612	     88.91301169	     87.18917515	      0.00000000	      0.00000000
      3.22000000	     -9.77127631	     -1.29278701	     -2.13986251	     -0.23153504	      1.36448056	     -0.94046973	     13.94938378	     -7.70145866	     -7.49545192	     12.03451309	      0.21004188	    -36.73279354	      0.00000000	      0.00000000	     14.86503947	    -12.76559983	     -3.59706188	     14.86744363	      0.25948584	    -26.58719167	      0.00000000	      0.00000000	     -9.10030530	     -0.88507521	     -6.18211456	    -19.41877989	    -40.65948970	     33.40517484	     89.20594434	     87.16781528	      0.00000000	      0.00000000	    -31.01989278	    -40.60966165	     25.28752307	     88.97347303	     87.18337519	      0.00000000	      0.00000000
      3.22500000	     -9.86905610	     -1.37728954	     -2.28664174	     -0.23124071	      1.37079228	     -0.94078265	     13.64099904	     -7.58255364	     -7.01048785	     10.83931648	      0.18918176	    -36.17090334	      0.00000000	      0.00000000	     14.60014283	    -12.99429250	     -4.29626546	     14.13561345	      0.24671300	    -25.60486546	      0.00000000	      0.00000000	     -8.93683917	     -0.77250176	     -6.03155751	    -20.12992917	    -40.55116961	     32.50810018	     89.43113514	     87.24203823	      0.00000000	      0.00000000	    -31.25476786	    -40.38145753	     24.77440151	     89.09417359	     87.23056612	      0.00000000	      0.00000000
      3.23000000	     -9.97021724	     -1.41685089	     -2.42621726	     -0.23094250	      1.37673528	     -0.94115788	     13.41751425	     -7.54560259	     -6.61795732	      9.86558766	      0.17218699	    -35.23332096	      0.00000000	      0.00000000	     14.33967799	    -13.15421794	     -4.96316431	     13.43939912	      0.23456176	    -24.59936215	      0.00000000	      0.00000000	     -8.75169898	     -0.70684620	     -5.92375578	    -20.66133772	    -40.57348872	     32.14356855	     89.73336033	     87.20718005	      0.00000000	      0.00000000	    -31.40594826	    -40.24535367	     24.48272662	     89.14506349	     87.22755509	      0.00000000	      0.00000000
      3.23500000	    -10.02485749	     -1.45137544	     -2.56903097	     -0.23076986	      1.38262448	     -0.94158305	     13.18837488	     -7.53365151	     -6.43151289	      8.96767613	      0.15651547	    -34.34098207	      0.00000000	      0.00000000	     14.05975060	    -13.30774678	     -5.99322999	     12.78678035	      0.22317142	    -23.69008324	      0.00000000	      0.00000000	     -8.66260835	     -0.63571428	     -5.81754198	    -21.18213715	    -40.52887521	     31.60227278	     89.97035481	     87.18358117	      0.00000000	      0.00000000	    -31.58694818	    -40.06458122	     24.08206603	     89.25516464	     87.23014761	      0.00000000	      0.00000000
      3.24000000	    -10.14888522	     -1.43609248	     -2.69753362	     -0.23071088	      1.38813140	     -0.94207766	     13.09589361	     -7.59163876	     -6.38402620	      8.18501004	      0.14285537	    -33.34510642	      0.00000000	      0.00000000	     13.91263588	    -13.41360888	     -7.11659984	     12.24998873	      0.21380264	    -23.16547364	      0.00000000	      0.00000000	     -8.47018968	     -0.61315139	     -5.70549004	    -21.52348654	    -40.57076497	     31.27069204	     90.17894963	     87.20259483	      0.00000000	      0.00000000	    -31.66481609	    -39.96281687	     23.83876475	     89.37968383	     87.23748726	      0.00000000	      0.00000000
      3.24500000	    -10.19093910	     -1.40391121	     -2.80712850	     -0.23057461	      1.39346049	     -0.94258857	     12.95768395	     -7.69106252	     -6.56827622	      7.53181989	      0.13145506	    -32.51379095	      0.00000000	      0.00000000	     13.69140362	    -13.47771823	     -8.34271615	     11.74645430	      0.20501430	    -22.72410613	      0.00000000	      0.00000000	     -8.39755115	     -0.62226272	     -5.58152871	    -21.92891628	    -40.61662409	     31.00555640	     90.39069083	     87.23638145	      0.00000000	      0.00000000	    -31.76074654	    -39.90903318	     23.61916514	     89.52499407	     87.24551924	      0.00000000	      0.00000000
      3.25000000	    -10.28601430	     -1.40233715	     -2.85540481	     -0.23040005	      1.39844648	     -0.94318506	     12.90526920	     -7.77817367	     -7.03538527	      6.99762655	      0.12213162	    -31.95288081	      0.00000000	      0.00000000	     13.65475298	    -13.56126831	    -10.29619365	     11.28848625	      0.19702125	    -22.82532746	      0.00000000	      0.00000000	     -8.25845626	     -0.57020947	     -5.51516469	    -22.27935546	    -40.64398664	     30.89383893	     90.56959430	     87.21519556	      0.00000000	      0.00000000	    -31.79306388	    -39.85516072	     23.50222303	     89.64243630	     87.24748701	      0.00000000	      0.00000000
